<?xml version="1.0" standalone="no"?>
<!DOCTYPE svg PUBLIC "-//W3C//DTD SVG 20010904//EN"
 "http://www.w3.org/TR/2001/REC-SVG-20010904/DTD/svg10.dtd">
<svg version="1.0" xmlns="http://www.w3.org/2000/svg"
 width="512.000000pt" height="512.000000pt" viewBox="0 0 512.000000 512.000000"
 preserveAspectRatio="xMidYMid meet">
<metadata>
Created by potrace 1.14, written by Peter Selinger 2001-2017
</metadata>
<g transform="translate(0.000000,512.000000) scale(0.100000,-0.100000)"
fill="#000000" stroke="none">
<path d="M1640 3271 c-238 -643 -292 -789 -338 -916 -22 -61 -45 -122 -51
-135 -5 -14 -51 -137 -101 -275 -50 -137 -95 -259 -100 -270 -15 -34 -100
-271 -100 -278 0 -4 154 -6 341 -5 l342 3 55 165 c30 91 56 166 57 168 3 3
654 5 761 3 31 -1 31 -1 78 -143 26 -79 52 -155 58 -170 l10 -28 364 0 c200 0
364 2 364 4 0 6 -187 513 -200 541 -5 11 -43 115 -85 230 -42 116 -83 226 -90
245 -14 33 -371 994 -440 1185 -18 50 -38 102 -43 116 l-11 27 -349 -1 -350 0
-172 -466z m537 -411 c3 -8 8 -23 10 -33 4 -22 28 -100 105 -337 33 -102 61
-192 63 -200 2 -8 8 -28 14 -44 7 -16 9 -31 7 -34 -6 -5 -465 -6 -470 -1 -2 2
30 103 71 224 66 196 122 373 155 490 l11 40 14 -45 c8 -25 17 -52 20 -60z"/>
<path d="M3520 1704 l0 -314 320 0 c176 0 320 3 321 8 1 9 1 582 0 604 -1 15
-30 16 -321 16 l-320 -1 0 -313z"/>
</g>
</svg>
